# File created by Blade
# Date/Time:  Wed Jan 21 17:57:11 2015
# Frame Rate: 120.000 fps
#------------------------------------------------------
:FULLY-SPECIFIED
:DEGREES
1226
root 18.851708 30.767835 -14.926280 -113.556516 -0.992668 -173.193939
Spine 56.493137 9.312688 -8.601286
Head 142.780242 -13.166404 178.602530
LeftShoulder 19.469406 -38.656769 3.619609
LeftArm 12.741275 -8.976842 -21.265580
LeftForeArm 5.808196 -0.000000 76.797951
LeftHand -9.702129 -0.000000 10.724031
LeftHandThumb1 -26.253704 0.000000 33.147579
RightShoulder 16.685337 18.714466 -27.917890
RightArm 5.057337 26.490261 16.327912
RightForeArm -19.645112 -0.000000 87.648431
RightHand 6.151192 -0.000000 1.214941
RightHandThumb1 -24.326973 -0.000000 -32.862282
LeftUpLeg -66.400168 31.385835 19.675219
LeftLeg 1.145430 -0.000000 -0.000000
LeftFoot -16.627223 15.868268 -20.504483
LeftToeBase 34.571160 -0.000000 -0.000000
RightUpLeg -74.146966 -23.161568 3.064767
RightLeg -3.624966 -0.000000 0.000000
RightFoot 2.527847 -24.529198 21.687033
RightToeBase 25.320878 -0.000000 -0.000000
1227
root 18.854681 30.772329 -14.912643 -113.579468 -0.200365 -173.328044
Spine 56.549733 8.970799 -8.575143
Head 143.276866 -12.854592 178.632485
LeftShoulder 19.503260 -38.862422 3.931143
LeftArm 13.609565 -7.999761 -21.434893
LeftForeArm 5.406279 -0.000000 76.545641
LeftHand -9.339396 -0.000000 10.220816
LeftHandThumb1 -26.253704 0.000000 33.147579
RightShoulder 15.737017 11.065783 -28.053155
RightArm 8.612565 33.461037 15.734346
RightForeArm -18.788499 0.000000 85.943566
RightHand 5.789944 -0.000000 1.130749
RightHandThumb1 -24.326973 -0.000000 -32.862282
LeftUpLeg -65.893955 31.389255 19.369823
LeftLeg 0.933999 -0.000000 -0.000000
LeftFoot -16.649581 16.176315 -20.748584
LeftToeBase 34.407505 -0.000000 -0.000000
RightUpLeg -74.410706 -22.985177 2.791928
RightLeg -3.683836 -0.000000 0.000000
RightFoot 2.689172 -24.657433 21.493691
RightToeBase 25.264304 -0.000000 -0.000000
1228
root 18.856346 30.774324 -14.904076 -113.586703 0.538488 -173.443711
Spine 56.630705 8.806425 -8.125895
Head 143.720690 -11.759304 178.500850
LeftShoulder 20.161852 -39.077199 3.765342
LeftArm 14.446059 -7.010372 -21.499916
LeftForeArm 4.603615 -0.000000 76.258688
LeftHand -8.845770 -0.000000 9.858188
LeftHandThumb1 -26.253704 0.000000 33.147579
RightShoulder 14.778206 3.199082 -28.097534
RightArm 11.998947 40.495427 15.342677
RightForeArm -17.829889 -0.000000 84.166287
RightHand 5.544580 -0.000000 1.062930
RightHandThumb1 -24.326973 -0.000000 -32.862282
LeftUpLeg -65.567248 31.481853 18.932741
LeftLeg 0.853625 -0.000000 -0.000000
LeftFoot -16.680688 16.271303 -20.938193
LeftToeBase 34.250578 -0.000000 -0.000000
RightUpLeg -74.665610 -22.817452 2.533095
RightLeg -3.730156 -0.000000 0.000000
RightFoot 2.835007 -24.688532 21.239885
RightToeBase 25.383589 -0.000000 -0.000000
1229
root 18.855244 30.773588 -14.893848 -113.558353 1.329781 -173.592519
Spine 56.592855 8.545947 -7.933517
Head 144.065991 -10.646838 178.429319
LeftShoulder 20.658175 -39.275869 3.734108
LeftArm 15.240060 -5.958719 -21.587380
LeftForeArm 4.037830 -0.000000 76.004749
LeftHand -8.418534 -0.000000 9.370852
LeftHandThumb1 -26.253704 0.000000 33.147579
RightShoulder 14.488530 2.990544 -27.603551
RightArm 12.217732 40.475601 15.662652
RightForeArm -17.728041 -0.000000 83.008673
RightHand 5.465928 -0.000000 1.333466
RightHandThumb1 -24.326973 -0.000000 -32.862282
LeftUpLeg -65.360199 31.623624 18.282020
LeftLeg 0.775210 -0.000000 -0.000000
LeftFoot -16.667190 16.259477 -21.081472
LeftToeBase 34.258796 -0.000000 -0.000000
RightUpLeg -74.966355 -22.666420 2.172560
RightLeg -3.751181 -0.000000 0.000000
RightFoot 2.951310 -24.672605 21.149534
RightToeBase 25.547090 -0.000000 -0.000000
1230
root 18.857518 30.771857 -14.885484 -113.527198 2.121345 -173.714057
Spine 56.586100 8.259897 -7.806981
Head 144.433717 -10.009408 178.409245
LeftShoulder 21.049876 -39.627581 3.746475
LeftArm 15.967430 -4.837102 -21.676870
LeftForeArm 3.359899 -0.000000 75.833881
LeftHand -8.022259 -0.000000 8.707552
LeftHandThumb1 -26.253704 0.000000 33.147579
RightShoulder 14.355762 3.016305 -27.279293
RightArm 12.190290 40.463739 16.190438
RightForeArm -17.655527 -0.000000 81.988890
RightHand 5.405972 -0.000000 1.468774
RightHandThumb1 -24.326973 -0.000000 -32.862282
LeftUpLeg -65.170871 31.813148 17.605268
LeftLeg 0.705281 -0.000000 -0.000000
LeftFoot -16.679829 16.287447 -21.252820
LeftToeBase 34.216032 -0.000000 -0.000000
RightUpLeg -75.214269 -22.470361 1.670443
RightLeg -3.741390 -0.000000 0.000000
RightFoot 3.063916 -24.678755 21.011766
RightToeBase 25.620403 -0.000000 -0.000000
1231
root 18.863725 30.767276 -14.878405 -113.518614 2.915451 -173.830238
Spine 56.600110 7.979982 -7.726752
Head 144.827672 -9.217969 178.434185
LeftShoulder 21.427761 -39.931374 3.850539
LeftArm 16.683630 -3.895137 -21.872287
LeftForeArm 2.818048 -0.000000 75.685227
LeftHand -7.614050 -0.000000 8.271143
LeftHandThumb1 -26.253704 0.000000 33.147579
RightShoulder 14.302184 2.576060 -26.898001
RightArm 12.264511 40.816054 16.479770
RightForeArm -17.540898 -0.000000 80.921561
RightHand 5.097476 -0.000000 1.590447
RightHandThumb1 -24.326973 -0.000000 -32.862282
LeftUpLeg -64.968273 32.025460 16.900416
LeftLeg 0.603446 -0.000000 -0.000000
LeftFoot -16.678052 16.275479 -21.391150
LeftToeBase 34.259132 -0.000000 -0.000000
RightUpLeg -75.444676 -22.277211 1.144484
RightLeg -3.704508 -0.000000 0.000000
RightFoot 3.126040 -24.645036 20.876117
RightToeBase 25.781764 -0.000000 -0.000000
1232
root 18.868082 30.760277 -14.868905 -113.462046 3.655054 -173.957754
Spine 56.542420 7.641803 -7.546565
Head 145.134512 -8.415872 178.347655
LeftShoulder 21.899623 -40.271840 3.736045
LeftArm 17.511164 -2.817291 -21.967608
LeftForeArm 2.081257 -0.000000 75.451369
LeftHand -7.335478 -0.000000 7.742368
LeftHandThumb1 -26.253704 0.000000 33.147579
RightShoulder 14.194092 2.870033 -26.408390
RightArm 12.242485 40.415481 16.800765
RightForeArm -17.628303 -0.000000 79.843386
RightHand 4.910048 -0.000000 1.659330
RightHandThumb1 -24.326973 -0.000000 -32.862282
LeftUpLeg -64.881655 32.224282 16.180858
LeftLeg 0.561930 -0.000000 -0.000000
LeftFoot -16.656103 16.247498 -21.443696
LeftToeBase 33.968441 -0.000000 -0.000000
RightUpLeg -75.747280 -22.141721 0.700327
RightLeg -3.635902 -0.000000 0.000000
RightFoot 3.183813 -24.505346 20.936417
RightToeBase 25.718213 -0.000000 -0.000000
1233
root 18.881192 30.750562 -14.859475 -113.412154 4.374286 -174.026370
Spine 56.510451 7.379200 -7.347760
Head 145.509660 -7.584239 178.382396
LeftShoulder 22.445646 -40.819296 3.645262
LeftArm 18.175222 -1.650530 -22.195516
LeftForeArm 1.712680 -0.000000 75.349036
LeftHand -7.063188 -0.000000 7.169700
LeftHandThumb1 -26.253704 0.000000 33.147579
RightShoulder 14.113047 2.580521 -25.981605
RightArm 12.267826 40.525826 16.973484
RightForeArm -17.378046 -0.000000 78.824605
RightHand 4.639763 -0.000000 2.025110
RightHandThumb1 -24.326973 -0.000000 -32.862282
LeftUpLeg -64.806498 32.509283 15.458910
LeftLeg 0.518314 -0.000000 -0.000000
LeftFoot -16.669735 16.151313 -21.518140
LeftToeBase 34.049721 -0.000000 -0.000000
RightUpLeg -76.030011 -21.965743 0.312004
RightLeg -3.584991 -0.000000 0.000000
RightFoot 3.241848 -24.336534 20.896065
RightToeBase 25.885518 -0.000000 -0.000000
1234
root 18.889728 30.736139 -14.851007 -113.412433 5.070670 -174.110465
Spine 56.526649 7.079078 -7.100383
Head 145.820022 -6.752969 178.374398
LeftShoulder 22.992326 -40.995186 3.627610
LeftArm 18.941659 -0.867854 -22.373091
LeftForeArm 1.386535 0.000000 75.267482
LeftHand -6.749833 -0.000000 6.550139
LeftHandThumb1 -26.253704 0.000000 33.147579
RightShoulder 14.002925 2.350072 -25.609405
RightArm 12.563664 40.737646 17.433405
RightForeArm -17.415361 -0.000000 77.662469
RightHand 4.617740 -0.000000 2.285682
RightHandThumb1 -24.326973 -0.000000 -32.862282
LeftUpLeg -64.931879 32.858307 14.528121
LeftLeg 0.694075 -0.000000 -0.000000
LeftFoot -16.709291 15.780300 -21.418635
LeftToeBase 34.129462 -0.000000 -0.000000
RightUpLeg -76.249510 -21.816814 -0.156980
RightLeg -3.494522 -0.000000 0.000000
RightFoot 3.255122 -24.127656 20.961974
RightToeBase 25.899150 -0.000000 -0.000000
1235
root 18.912316 30.722897 -14.843193 -113.426264 5.685287 -174.121788
Spine 56.615615 6.744779 -6.842066
Head 146.323161 -5.988618 178.312565
LeftShoulder 23.288639 -41.230528 3.767740
LeftArm 19.814748 -0.096078 -22.579231
LeftForeArm 1.025851 0.000000 75.197704
LeftHand -6.529501 0.000000 5.865264
LeftHandThumb1 -26.253704 0.000000 33.147579
RightShoulder 13.894413 2.612041 -25.372714
RightArm 12.810227 40.465414 18.058879
RightForeArm -17.610704 -0.000000 76.498303
RightHand 4.550807 -0.000000 2.612275
RightHandThumb1 -24.326973 -0.000000 -32.862282
LeftUpLeg -64.763192 33.132565 14.028894
LeftLeg 0.676444 -0.000000 -0.000000
LeftFoot -16.718052 15.714669 -21.474220
LeftToeBase 34.000432 -0.000000 -0.000000
RightUpLeg -76.453899 -21.621006 -0.472078
RightLeg -3.397807 -0.000000 0.000000
RightFoot 3.237013 -23.882875 20.898195
RightToeBase 25.969709 -0.000000 -0.000000
